# xmcd
#
# Track frame offsets:
#	150
#	15181
#	41707
#	58241
#	77708
#	99838
#	120563
#	145142
#	164348
#
# Disc length: 2510 seconds
#
# Revision: 22
# Processed by: cddbd v1.5.2PL0 Copyright (c) Steve Scherf et al.
# Submitted via: Jack! The Knife 20 Magnifico
#
DISCID=6909cc09
DTITLE=Dio - Holy Diver
DYEAR=1983
DGENRE=Metal
TTITLE0=Stand Up And Shout
TTITLE1=Holy Diver
TTITLE2=Gypsy
TTITLE3=Caught In The Middle
TTITLE4=Don't Talk To Strangers
TTITLE5=Straight Through The Heart
TTITLE6=Invisible
TTITLE7=Rainbow In The Dark
TTITLE8=Shame On The Night
EXTD=Ronnie James Dio
EXTT0=Bain, Dio
EXTT1=Ronnie James Dio
EXTT2=Campbell, Dio
EXTT3=Appice, Campbell, Dio
EXTT4=Ronnie James Dio
EXTT5=Bain, Dio
EXTT6=Appice, Campbell, Dio
EXTT7=Appice, Bain, Campbell, Dio
EXTT8=Appice, Bain, Campbell, Dio
PLAYORDER=
